<svg width="26" height="26" viewBox="0 0 26 26" fill="none" xmlns="http://www.w3.org/2000/svg">
<path d="M12.071 13.9286C9.44872 13.9286 7.12265 14.521 5.59422 15.0364C4.46601 15.418 3.71387 16.4812 3.71387 17.6726L3.71387 21.3571C3.71387 21.3571 12.9606 21.3571 12.9996 21.3571" stroke="white" stroke-width="1.47" stroke-miterlimit="10"/>
<path d="M12.0716 13.9286C9.50778 13.9286 7.42871 10.9209 7.42871 8.35714V7.42857C7.42871 4.86479 9.50778 2.78571 12.0716 2.78571C14.6354 2.78571 16.7144 4.86479 16.7144 7.42857L16.7144 8.35714C16.7144 10.9209 14.6354 13.9286 12.0716 13.9286Z" stroke="white" stroke-width="1.47" stroke-miterlimit="10" stroke-linecap="square"/>
<path d="M19.5 16.7143L19.5 22.2857" stroke="white" stroke-width="1.47" stroke-miterlimit="10" stroke-linecap="square"/>
<path d="M16.7139 19.5L22.2853 19.5" stroke="white" stroke-width="1.47" stroke-miterlimit="10" stroke-linecap="square"/>
</svg>
