<svg width="22" height="22" viewBox="0 0 22 22" fill="none" xmlns="http://www.w3.org/2000/svg">
<g clip-path="url(#clip0_90_621)">
<path d="M13.1229 8.33957C12.996 7.98248 12.7617 7.67335 12.4523 7.4545C12.1429 7.23565 11.7734 7.11777 11.3944 7.117H9.97536C9.57053 7.11488 9.1793 7.26295 8.87731 7.53257C8.57533 7.80219 8.38404 8.17421 8.34045 8.57669C8.29686 8.97917 8.40406 9.38352 8.64132 9.71155C8.87858 10.0396 9.22904 10.268 9.62493 10.3526L11.7856 10.824C12.2275 10.9207 12.6179 11.1773 12.8821 11.5444C13.1462 11.9116 13.2654 12.3634 13.2166 12.813C13.1679 13.2626 12.9547 13.6784 12.6181 13.9804C12.2815 14.2825 11.8451 14.4494 11.3928 14.4493H10.1718C9.37351 14.4493 8.69465 13.9401 8.44322 13.2283M10.7831 7.117V5.28314M10.7831 16.2831V14.4509M3.13965 21.2111V17.2826H7.06822" stroke="white" stroke-width="1.5" stroke-linecap="round" stroke-linejoin="round"/>
<path d="M21.0378 9.12057C21.455 11.3445 21.1219 13.644 20.0909 15.6581C19.0599 17.6722 17.3892 19.287 15.3412 20.249C13.2932 21.211 10.9837 21.4657 8.77528 20.9732C6.56684 20.4806 4.58445 19.2687 3.13925 17.5277M0.961252 12.8794C0.544077 10.6555 0.877144 8.35604 1.90818 6.3419C2.93921 4.32776 4.60984 2.71298 6.65786 1.75101C8.70589 0.78903 11.0154 0.534316 13.2238 1.02684C15.4322 1.51937 17.4146 2.73125 18.8598 4.47228" stroke="white" stroke-width="1.5" stroke-linecap="round" stroke-linejoin="round"/>
<path d="M18.8602 0.788857V4.71743H14.9316" stroke="white" stroke-width="1.5" stroke-linecap="round" stroke-linejoin="round"/>
</g>
<defs>
<clipPath id="clip0_90_621">
<rect width="22" height="22" fill="white"/>
</clipPath>
</defs>
</svg>
