<svg width="30" height="30" viewBox="0 0 30 30" fill="none" xmlns="http://www.w3.org/2000/svg">
<g id="lock">
<path id="Vector" d="M23.7289 14.1108H6.65667C5.3097 14.1108 4.21777 15.2027 4.21777 16.5497V25.0858C4.21777 26.4327 5.3097 27.5247 6.65667 27.5247H23.7289C25.0759 27.5247 26.1678 26.4327 26.1678 25.0858V16.5497C26.1678 15.2027 25.0759 14.1108 23.7289 14.1108Z" stroke="#252323" stroke-linecap="round" stroke-linejoin="round"/>
<path id="Vector_2" d="M9.0957 14.1108V9.23303C9.0957 7.61594 9.73809 6.06509 10.8815 4.92164C12.025 3.77819 13.5758 3.1358 15.1929 3.1358C16.81 3.1358 18.3609 3.77819 19.5043 4.92164C20.6478 6.06509 21.2901 7.61594 21.2901 9.23303V14.1108" stroke="#252323" stroke-linecap="round" stroke-linejoin="round"/>
</g>
</svg>
