<svg width="27" height="28" viewBox="0 0 27 28" fill="none" xmlns="http://www.w3.org/2000/svg">
<path d="M11.5711 21.2208C6.77768 21.2208 2.89258 17.3357 2.89258 12.5422C2.89258 7.74873 6.77768 3.86362 11.5711 3.86362C16.3646 3.86362 20.2497 7.74873 20.2497 12.5422C20.2439 17.3328 16.3617 21.215 11.5711 21.2208ZM11.5711 5.79219C7.84322 5.79219 4.82115 8.81426 4.82115 12.5422C4.82115 16.2701 7.84322 19.2922 11.5711 19.2922C15.2991 19.2922 18.3211 16.2701 18.3211 12.5422C18.3173 8.81619 15.2971 5.79605 11.5711 5.79219Z" fill="#DCDCDC"/>
<path d="M23.8249 23.4319L19.7209 19.3279C19.3092 19.8226 18.8521 20.2796 18.3574 20.6914L22.4614 24.7954C22.8442 25.1657 23.4546 25.1551 23.8249 24.7713C24.1856 24.3971 24.1856 23.8051 23.8249 23.4319Z" fill="#DCDCDC"/>
<path d="M7.71429 13.5065C7.182 13.5065 6.75 13.0745 6.75 12.5422C6.75 9.88366 8.91289 7.72076 11.5714 7.72076C12.1037 7.72076 12.5357 8.15276 12.5357 8.68505C12.5357 9.21734 12.1037 9.64934 11.5714 9.64934C9.9765 9.64934 8.67857 10.9473 8.67857 12.5422C8.67857 13.0745 8.24657 13.5065 7.71429 13.5065Z" fill="#DCDCDC"/>
</svg>
